<svg version="1.1" xmlns="http://www.w3.org/2000/svg" xmlns:xlink="http://www.w3.org/1999/xlink" width="458.25687" height="177.232" viewBox="0,0,458.25687,177.232"><g transform="translate(11.01218,-58.268)"><g data-paper-data="{&quot;isPaintingLayer&quot;:true}" fill-rule="nonzero" stroke="none" stroke-width="0.5" stroke-linecap="butt" stroke-linejoin="miter" stroke-miterlimit="10" stroke-dasharray="" stroke-dashoffset="0" style="mix-blend-mode: normal"><path d="M28.73607,134.88197c1.11803,2.23607 -1.11803,3.3541 -1.11803,3.3541l-1.73128,0.84406c-1.84397,1.18823 -3.06043,3.14394 -4.61898,4.68764c-4.22437,4.1841 -10.26375,6.80199 -15.22768,9.92495c-2.58701,1.62757 -5.8485,4.72717 -8.72131,5.82272c-1.7101,0.65215 -3.60519,0.6337 -5.40778,0.95055c0,0 -2.46598,0.411 -2.87698,-2.05499c-0.411,-2.46598 2.05499,-2.87698 2.05499,-2.87698c1.48539,-0.23115 3.04952,-0.16319 4.45616,-0.69344c1.53722,-0.57948 6.67915,-4.65428 7.83214,-5.37983c4.60139,-2.89558 10.4818,-5.31334 14.35493,-9.22851c0.84524,-0.85441 1.14472,-2.15564 2,-3c0.97165,-0.95925 2.25401,-1.54157 3.38102,-2.31236l2.26872,-1.15594c0,0 2.23607,-1.11803 3.3541,1.11803z" fill="#ff0000"/><path d="M341,233c0,-2.5 2.5,-2.5 2.5,-2.5l2.76865,0.01073c11.8354,-2.27569 24.35621,-3.52971 35.79548,-7.32781c1.6304,-0.54133 3.22936,-1.19 4.89285,-1.619c1.43003,-0.36879 3.02827,-0.13684 4.36338,-0.76811c2.70514,-1.27905 5.55203,-7.46934 6.78616,-9.83994c2.28023,-4.37999 3.85618,-9.17993 5.94853,-13.65422c2.82959,-6.05082 5.98542,-11.97275 8.97282,-17.94756c4.98879,-9.96387 11.91612,-18.76979 17.26166,-28.52192c2.86559,-5.22784 4.88107,-11.15099 7.281,-16.61039c2.12967,-4.84462 5.68772,-12.22348 4.48394,-17.70281c-2.00988,-9.14852 -9.8558,-14.44916 -16.97879,-19.42335c-4.42096,-1.88067 -8.82965,-4.09214 -13.34828,-5.71801c-3.75769,-1.35207 -8.1394,-1.83932 -12.03012,-2.72358c-6.29472,-1.43062 -12.55189,-2.69554 -18.91284,-3.79225c-6.41138,-1.10541 -13.01882,-2.81647 -19.49759,-3.37089c-11.40084,-0.97563 -23.33765,0.0091 -34.78684,0.0091c-28.19335,0 -56.3867,0 -84.58004,0c-0.19949,0.02263 -0.3926,0.0188 -0.57071,0c-0.94975,0 -1.8995,0 -2.84925,0c0,0 -2.42432,0 -2.49827,-2.38734c-1.39515,-0.60647 -2.82741,-1.12638 -4.29908,-1.48797c-5.05399,-1.27719 -9.25188,-3.73415 -14.14912,-5.27941c-3.11393,-0.98256 -6.42127,-1.19699 -9.60827,-1.90762c-4.3942,-0.9798 -8.69176,-2.41937 -13.09669,-3.34738c-19.59131,-4.12742 -40.55549,-4.2523 -60.4778,-3.41512c-5.23471,0.1951 -8.97918,1.79305 -13.99729,3.12734c-6.45896,1.7174 -12.71823,3.07546 -19.05809,5.28422c-3.4488,1.20153 -9.07231,2.97094 -11.59772,6.0549c0.23331,-0.27565 0.55405,-0.60251 0.78234,-0.64162c1.44474,-0.24751 2.95262,-0.2164 4.39725,0.03176c1.28824,0.2213 7.9337,2.73667 9.29417,3.04927c4.78171,1.09871 9.89698,1.13008 14.73602,1.95578c4.71956,0.80531 9.41516,2.01556 14.09652,3.01871c8.01433,1.71836 16.01787,3.48367 24.0286,5.2179c0.63023,0.13644 9.9366,2.08529 10.26024,2.22714c1.66196,0.72843 2.95268,2.11114 4.46109,3.11981c6.99919,4.6803 12.05464,9.9243 17.60442,16.22981c0.69003,0.784 6.16642,7.19484 6.34284,7.50246c2.25406,3.93046 2.26358,9.82606 2.27883,14.14735c0,0 0,0.44164 -0.18562,0.95367c0.1152,0.28797 0.18466,0.63298 0.18562,1.04633c0,2.5 -2.5,2.5 -2.5,2.5l-2.59954,-0.03228c-4.52528,1.56743 -8.91416,3.51882 -13.40249,5.103c-1.50986,0.53291 -3.19539,0.5184 -4.65982,1.16578c-2.9456,1.30216 -5.29859,3.66564 -8.02006,5.38779c-3.61529,2.28776 -7.6288,3.9403 -11.24538,6.18175c-4.41354,2.73538 -8.3574,6.61789 -13.49833,8.12707c-0.29154,0.08558 -5.97655,0.06688 -6.57438,0.06688c0,0 -2.5,0 -2.5,-2.5c0,-1.8158 1.31885,-2.31275 2.04074,-2.44875l-0.30851,-0.78347c-0.75345,-0.76866 -1.50689,-1.53733 -2.26034,-2.30599c-4.53787,-9.07575 -14.4921,-15.47685 -23.70266,-19.30793c-5.71154,-2.37568 -10.29551,-4.27566 -16.51986,-4.65856c-6.2349,-0.38355 -13.38292,-0.62347 -19.59538,0.0115c-2.72389,0.2784 -5.41592,0.98296 -8.15399,0.99322c0,0 -1.98275,0 -2.41673,-1.76576c-2.0758,0.42665 -3.78471,1.32216 -6.18281,1.73347c-0.98561,0.16905 -2.01274,-0.15909 -3,0c-3.06819,0.49442 -5.91403,2.47216 -8.99227,2.99873c-3.38452,0.57897 -7.06603,0.04303 -10.28125,1.76514c-1.01901,0.54579 -1.93649,1.21932 -2.80161,1.95874c-0.07657,0.47903 -0.15417,0.9587 -0.23546,1.43714c0.25928,0.39398 0.41014,0.86565 0.41014,1.37255c0,0.86558 -0.4399,1.62842 -1.10833,2.07715c-0.93983,3.77462 -2.55627,7.16712 -6.2933,9.16864v-0.00002c-3.5708,1.91249 -6.91116,1.70404 -10.69792,2.22193c-3.42622,0.46858 -6.57876,2.56071 -10.095,3.01355c-3.71238,0.4781 -5.83811,-0.64964 -8.53769,2.2865c0,0 -1.76777,1.76777 -3.53553,0c-1.76777,-1.76777 0,-3.53553 0,-3.53553c0.84534,-0.80258 1.49245,-1.88842 2.53602,-2.40773c1.77486,-0.88323 3.79163,-1.01265 5.81535,-1.10166l-1.13921,-0.2848c-1.1133,-0.25265 -1.9444,-1.24829 -1.9444,-2.43804c0,-0.88153 0.45626,-1.6565 1.14551,-2.10163l2.96774,-1.97849l0.02382,0.03573l0.10811,-0.11788c0.64857,-0.32404 1.28825,-0.62988 1.92351,-0.92096c-0.44084,-1.17218 0.39314,-3.05343 2.81383,-5.90353c0.85794,-1.01014 2.47779,-0.94208 3.72691,-1.38494c0.11592,-0.0411 6.033,-2.00909 6.0916,-2.02859c4.44444,-1.00251 5.74607,-3.5652 10.32421,-4.02115l0.95957,-0.63972c0.40239,-0.27681 0.88987,-0.43883 1.41519,-0.43883c0.82236,0 1.55197,0.39706 2.0076,1.00992c0.53746,0.07477 1.03528,0.22124 1.4468,0.49043c0.1377,-0.0797 0.27722,-0.15707 0.41866,-0.23196c3.69413,-1.95578 7.81506,-1.60018 11.71875,-2.23486c3.0739,-0.49977 5.92351,-2.47227 9.00773,-3.00127c0.98561,-0.16905 2.01274,0.15909 3,0c3.41588,-0.55044 5.78319,-1.99794 9.40046,-2.03228l-0.76777,-0.26777c0,0 1.76777,-1.76777 3.53553,0l0.00001,0.00001c0.67683,0.67683 0.83538,1.35365 0.77331,1.93126c1.36865,-0.22119 2.73455,-0.49417 4.11074,-0.63143c6.47923,-0.64623 13.90353,-0.42726 20.40455,-0.02734c13.30973,0.81877 26.67363,7.96042 36.49687,16.7404c3.30324,2.95242 5.47648,5.29632 7.47486,9.2931c0.57989,0.56467 1.15977,1.12934 1.73966,1.69401l1.4683,2.64973c0,0 0.46043,0.92086 0.1994,1.87616c0.33462,-0.03151 0.6652,-0.09144 0.99016,-0.19125c4.49407,-1.38034 8.13149,-5.10756 12.0141,-7.5114c3.61822,-2.24015 7.62845,-3.89109 11.24219,-6.17977c0.57013,-0.36108 8.25848,-5.54353 8.62095,-5.70621c1.58036,-0.70929 3.39537,-0.73427 5.02817,-1.31272c4.78885,-1.69654 9.40217,-3.75122 14.26852,-5.32449l0.90287,-0.00857c0.01994,-3.46911 0.06754,-8.3564 -1.72359,-11.37637c-1.46494,-2.46998 -3.75981,-4.34187 -5.65716,-6.49754c-5.2919,-6.01235 -10.02589,-10.88377 -16.64247,-15.3834c-1.25601,-0.85415 -2.28939,-2.07538 -3.67896,-2.68877c-2.89731,-1.27895 -6.21028,-1.24731 -9.30561,-1.91742c-8.0074,-1.73351 -16.0076,-3.4981 -24.0186,-5.21575c-4.61714,-0.98939 -9.24856,-2.18759 -13.90348,-2.98129c-4.93255,-0.84104 -10.12555,-0.88893 -15.00082,-2.00913c-3.07095,-0.70562 -5.86467,-2.44561 -8.96899,-2.98582c-1.50174,-0.26133 -7.7471,0.69259 -8.57326,-0.92971c-3.26384,-6.40906 5.18667,-10.46676 9.18474,-12.36892c7.70951,-3.66796 16.22067,-5.03117 24.37442,-7.19921c5.35204,-1.42308 9.4692,-3.0334 15.07284,-3.29085c20.34292,-0.84958 41.71445,-0.69609 61.71783,3.51814c4.43168,0.93365 8.75476,2.37957 13.17543,3.36464c0.48048,0.10707 9.72133,1.92572 10.00334,2.01471c4.82537,1.52259 8.89277,3.96105 13.86138,5.19799c2.66723,0.68104 5.23255,1.76551 7.69857,2.98891l1.47216,0.73608c28.13661,0 56.27322,0 84.40982,0c11.59354,0 23.66726,-0.97894 35.21316,0.0091c6.62205,0.56669 13.36823,2.29563 19.92081,3.42538c6.44713,1.11157 12.79143,2.39389 19.17141,3.84389c4.05046,0.92056 8.54838,1.44959 12.46722,2.844c4.8168,1.71393 9.53175,4.07422 14.22607,6.09957c7.34512,5.07367 13.62887,9.49431 17.31655,17.83176c0.7238,1.63645 1.77829,3.17291 2.13032,4.92731c1.35164,6.73622 -2.16452,14.74068 -4.79637,20.74975c-2.44178,5.57509 -4.52041,11.59679 -7.43869,16.93704c-5.3142,9.72464 -12.2515,18.49008 -17.21048,28.42235c-2.96784,5.93569 -6.10467,11.81834 -8.91572,17.82953c-2.12318,4.54023 -3.7287,9.40006 -6.04276,13.84504c-1.89586,3.64168 -5.02768,9.92385 -8.86187,11.93945c-3.06952,1.61363 -6.74908,1.6321 -10.04046,2.72417c-11.78132,3.90902 -24.69969,5.32046 -36.90783,7.56091l-3.23135,0.01073c0,0 -2.5,0 -2.5,-2.5zM198.00001,136.00001l-0.00001,-0.00865c0.00001,0.00288 0.00001,0.00577 0.00001,0.00865zM24.23274,146.57291c-1.806,0.96289 -3.72198,1.73899 -5.56308,2.63659c-0.88762,0.43275 -1.77088,1.1543 -2.65662,1.89507c1.74713,-0.18557 3.40096,-0.46252 5.38858,-1.35035c1.58898,-0.70977 2.34302,-1.82817 2.83112,-3.1813z" fill="#fe5253"/></g></g></svg>