<svg version="1.1" xmlns="http://www.w3.org/2000/svg" xmlns:xlink="http://www.w3.org/1999/xlink" width="128.39398" height="133.5459" viewBox="0,0,128.39398,133.5459"><g transform="translate(-175.80301,-113.22705)"><g data-paper-data="{&quot;isPaintingLayer&quot;:true}" stroke-miterlimit="10" stroke-dasharray="" stroke-dashoffset="0" style="mix-blend-mode: normal"><g fill-rule="evenodd"><path d="" fill="#ffab19" stroke="#001026" stroke-width="1.2" stroke-linecap="round" stroke-linejoin="round"/><path d="" fill="#ffffff" stroke="none" stroke-width="1" stroke-linecap="butt" stroke-linejoin="miter"/></g><path d="" fill="#ffab19" fill-rule="evenodd" stroke="#001026" stroke-width="1.2" stroke-linecap="round" stroke-linejoin="round"/><path d="" fill="#ffab19" fill-rule="evenodd" stroke="#001026" stroke-width="1.2" stroke-linecap="round" stroke-linejoin="round"/><g fill-rule="evenodd"><path d="" fill="#ffab19" stroke="#001026" stroke-width="1.2" stroke-linecap="round" stroke-linejoin="round"/><path d="" fill="#ffffff" stroke="none" stroke-width="1" stroke-linecap="butt" stroke-linejoin="miter"/></g><path d="" fill="#ffab19" fill-rule="evenodd" stroke="#001026" stroke-width="1.2" stroke-linecap="round" stroke-linejoin="round"/><g fill-rule="evenodd"><path d="" fill="#ffab19" stroke="#001026" stroke-width="1.2" stroke-linecap="butt" stroke-linejoin="miter"/><path d="" fill="#ffffff" stroke="none" stroke-width="1" stroke-linecap="butt" stroke-linejoin="miter"/><path d="" fill="#ffffff" stroke="#001026" stroke-width="1.2" stroke-linecap="round" stroke-linejoin="round"/><path d="" fill="#001026" stroke="#001026" stroke-width="1.2" stroke-linecap="round" stroke-linejoin="round"/><g><path d="" fill="#ffffff" stroke="#001026" stroke-width="1.2" stroke-linecap="round" stroke-linejoin="round"/><path d="" fill="#001026" stroke="none" stroke-width="1" stroke-linecap="butt" stroke-linejoin="miter"/></g><g><path d="" fill="#ffffff" stroke="#001026" stroke-width="1.2" stroke-linecap="round" stroke-linejoin="round"/><path d="" fill="#001026" stroke="none" stroke-width="1" stroke-linecap="butt" stroke-linejoin="miter"/></g></g><path d="M303.19699,180c0,36.3254 -28.29425,65.77295 -63.19699,65.77295c-34.90273,0 -63.19699,-29.44755 -63.19699,-65.77295c0,-36.3254 28.29425,-65.77295 63.19699,-65.77295c34.90273,0 63.19699,29.44755 63.19699,65.77295z" fill="#ffffff" fill-rule="nonzero" stroke="#000000" stroke-width="2" stroke-linecap="butt" stroke-linejoin="miter"/><path d="M212.32567,157.63914c0,-1.9575 1.58687,-3.54437 3.54437,-3.54437c1.9575,0 3.54437,1.58687 3.54437,3.54437c0,1.9575 -1.58687,3.54437 -3.54437,3.54437c-1.9575,0 -3.54437,-1.58687 -3.54437,-3.54437z" fill="#000000" fill-rule="nonzero" stroke="none" stroke-width="0.5" stroke-linecap="butt" stroke-linejoin="miter"/><path d="M253.83499,159.00874c0,-1.9575 1.58687,-3.54437 3.54437,-3.54437c1.9575,0 3.54437,1.58687 3.54437,3.54437c0,1.9575 -1.58687,3.54437 -3.54437,3.54437c-1.9575,0 -3.54437,-1.58687 -3.54437,-3.54437z" fill="#000000" fill-rule="nonzero" stroke="none" stroke-width="0.5" stroke-linecap="butt" stroke-linejoin="miter"/><path d="M256.32568,188.19337c3.3261,-1.22459 4.55068,2.10151 4.55068,2.10151l0.34339,1.1319c0.97586,6.34123 0.58645,12.16511 -0.50833,18.45513c-0.17784,4.88338 0.19844,8.5286 -1.71401,13.16557c-1.26065,3.05658 -2.99274,7.32454 -5.99589,9.27722c-6.36164,4.13642 -15.06423,3.08214 -20.95607,-1.07994c-11.40697,-8.05802 -20.06066,-21.01724 -17.46342,-35.16554c0,0 0.66119,-3.48216 4.14335,-2.82097c3.48216,0.66119 2.82097,4.14335 2.82097,4.14335c-2.17062,10.97945 4.19715,17.98454 11.57245,25.31821c4.21873,4.1949 10.14862,7.12905 15.96209,3.69907c5.16178,-3.04548 4.39424,-12.50528 4.58078,-17.27938c0.98733,-5.693 1.47177,-10.87842 0.55475,-16.61569l0.00774,0.22027c0,0 -1.22459,-3.3261 2.10151,-4.55068z" fill="#000000" fill-rule="nonzero" stroke="none" stroke-width="0.5" stroke-linecap="butt" stroke-linejoin="miter"/></g></g></svg>