<svg version="1.1" xmlns="http://www.w3.org/2000/svg" xmlns:xlink="http://www.w3.org/1999/xlink" width="209.01218" height="39.05517" viewBox="0,0,209.01218,39.05517"><g transform="translate(11.01218,-125.44656)"><g data-paper-data="{&quot;isPaintingLayer&quot;:true}" fill-rule="nonzero" stroke="none" stroke-width="0.5" stroke-linecap="butt" stroke-linejoin="miter" stroke-miterlimit="10" stroke-dasharray="" stroke-dashoffset="0" style="mix-blend-mode: normal"><path d="M28.73607,134.88197c1.11803,2.23607 -1.11803,3.3541 -1.11803,3.3541l-1.73128,0.84406c-1.84397,1.18823 -3.06043,3.14394 -4.61898,4.68764c-4.22437,4.1841 -10.26375,6.80199 -15.22768,9.92495c-2.58701,1.62757 -5.8485,4.72717 -8.72131,5.82272c-1.7101,0.65215 -3.60519,0.6337 -5.40778,0.95055c0,0 -2.46598,0.411 -2.87698,-2.05499c-0.411,-2.46598 2.05499,-2.87698 2.05499,-2.87698c1.48539,-0.23115 3.04952,-0.16319 4.45616,-0.69344c1.53722,-0.57948 6.67915,-4.65428 7.83214,-5.37983c4.60139,-2.89558 10.4818,-5.31334 14.35493,-9.22851c0.84524,-0.85441 1.14472,-2.15564 2,-3c0.97165,-0.95925 2.25401,-1.54157 3.38102,-2.31236l2.26872,-1.15594c0,0 2.23607,-1.11803 3.3541,1.11803z" fill="#ff0000"/><path d="M198,136c0,2.5 -2.5,2.5 -2.5,2.5l-2.59954,-0.03228c-4.52528,1.56743 -8.91416,3.51882 -13.40249,5.103c-1.50986,0.53291 -3.19539,0.5184 -4.65982,1.16578c-2.9456,1.30216 -5.29859,3.66564 -8.02006,5.38779c-3.61529,2.28776 -7.6288,3.9403 -11.24538,6.18175c-4.41354,2.73538 -8.3574,6.61789 -13.49833,8.12707c-0.29154,0.08558 -5.97655,0.06688 -6.57438,0.06688c0,0 -2.5,0 -2.5,-2.5c0,-1.8158 1.31885,-2.31275 2.04074,-2.44875l-0.30851,-0.78347c-0.75345,-0.76866 -1.50689,-1.53733 -2.26034,-2.30599c-4.53787,-9.07575 -14.4921,-15.47685 -23.70266,-19.30793c-5.71154,-2.37568 -10.29551,-4.27566 -16.51986,-4.65856c-6.2349,-0.38355 -13.38292,-0.62347 -19.59538,0.0115c-2.72389,0.2784 -5.41592,0.98296 -8.15399,0.99322c0,0 -1.98275,0 -2.41673,-1.76576c-2.0758,0.42665 -3.78471,1.32216 -6.18281,1.73347c-0.98561,0.16905 -2.01274,-0.15909 -3,0c-3.06819,0.49442 -5.91403,2.47216 -8.99227,2.99873c-3.38452,0.57897 -7.06603,0.04303 -10.28125,1.76514c-1.01901,0.54579 -1.93649,1.21932 -2.80161,1.95874c-0.07657,0.47903 -0.15417,0.9587 -0.23546,1.43714c0.25928,0.39398 0.41014,0.86565 0.41014,1.37255c0,0.86558 -0.4399,1.62842 -1.10833,2.07715c-0.93983,3.77462 -2.55627,7.16712 -6.2933,9.16864v-0.00002c-3.5708,1.91249 -6.91116,1.70404 -10.69792,2.22193c-3.42622,0.46858 -6.57876,2.56071 -10.095,3.01355c-3.71238,0.4781 -5.83811,-0.64964 -8.53769,2.2865c0,0 -1.76777,1.76777 -3.53553,0c-1.76777,-1.76777 0,-3.53553 0,-3.53553c0.84534,-0.80258 1.49245,-1.88842 2.53602,-2.40773c1.77486,-0.88323 3.79163,-1.01265 5.81535,-1.10166l-1.13921,-0.2848c-1.1133,-0.25265 -1.9444,-1.24829 -1.9444,-2.43804c0,-0.88153 0.45626,-1.6565 1.14551,-2.10163l2.96774,-1.97849l0.02382,0.03573l0.10811,-0.11788c0.64857,-0.32404 1.28825,-0.62988 1.92351,-0.92096c-0.44084,-1.17218 0.39314,-3.05343 2.81383,-5.90353c0.85794,-1.01014 2.47779,-0.94208 3.72691,-1.38494c0.11592,-0.0411 6.033,-2.00909 6.0916,-2.02859c4.44444,-1.00251 5.74607,-3.5652 10.32421,-4.02115l0.95957,-0.63972c0.40239,-0.27681 0.88987,-0.43883 1.41519,-0.43883c0.82236,0 1.55197,0.39706 2.0076,1.00992c0.53746,0.07477 1.03528,0.22124 1.4468,0.49043c0.1377,-0.0797 0.27722,-0.15707 0.41866,-0.23196c3.69413,-1.95578 7.81506,-1.60018 11.71875,-2.23486c3.0739,-0.49977 5.92351,-2.47227 9.00773,-3.00127c0.98561,-0.16905 2.01274,0.15909 3,0c3.41588,-0.55044 5.78319,-1.99794 9.40046,-2.03228l-0.76777,-0.26777c0,0 1.76777,-1.76777 3.53553,0l0.00001,0.00001c0.67683,0.67683 0.83538,1.35365 0.77331,1.93126c1.36865,-0.22119 2.73455,-0.49417 4.11074,-0.63143c6.47923,-0.64623 13.90353,-0.42726 20.40455,-0.02734c13.30973,0.81877 26.67363,7.96042 36.49687,16.7404c3.30324,2.95242 5.47648,5.29632 7.47486,9.2931c0.57989,0.56467 1.15977,1.12934 1.73966,1.69401l1.4683,2.64973c0,0 0.46043,0.92086 0.1994,1.87616c0.33462,-0.03151 0.6652,-0.09144 0.99016,-0.19125c4.49407,-1.38034 8.13149,-5.10756 12.0141,-7.5114c3.61822,-2.24015 7.62845,-3.89109 11.24219,-6.17977c0.57013,-0.36108 8.25848,-5.54353 8.62095,-5.70621c1.58036,-0.70929 3.39537,-0.73427 5.02817,-1.31272c4.78885,-1.69654 9.40217,-3.75122 14.26852,-5.32449l3.40046,-0.03228c0,0 2.5,0 2.5,2.5zM24.23274,146.57291c-1.806,0.96289 -3.72198,1.73899 -5.56308,2.63659c-0.88762,0.43275 -1.77088,1.1543 -2.65662,1.89507c1.74713,-0.18557 3.40096,-0.46252 5.38858,-1.35035c1.58898,-0.70977 2.34302,-1.82817 2.83112,-3.1813z" fill="#fe5253"/></g></g></svg>