<svg version="1.1" xmlns="http://www.w3.org/2000/svg" xmlns:xlink="http://www.w3.org/1999/xlink" width="42.91973" height="30.05344" viewBox="0,0,42.91973,30.05344"><g transform="translate(11.01218,-132.5)"><g data-paper-data="{&quot;isPaintingLayer&quot;:true}" fill-rule="nonzero" stroke="none" stroke-width="0.5" stroke-linecap="butt" stroke-linejoin="miter" stroke-miterlimit="10" stroke-dasharray="" stroke-dashoffset="0" style="mix-blend-mode: normal"><path d="M28.73607,134.88197c1.11803,2.23607 -1.11803,3.3541 -1.11803,3.3541l-1.73128,0.84406c-1.84397,1.18823 -3.06043,3.14394 -4.61898,4.68764c-4.22437,4.1841 -10.26375,6.80199 -15.22768,9.92495c-2.58701,1.62757 -5.8485,4.72717 -8.72131,5.82272c-1.7101,0.65215 -3.60519,0.6337 -5.40778,0.95055c0,0 -2.46598,0.411 -2.87698,-2.05499c-0.411,-2.46598 2.05499,-2.87698 2.05499,-2.87698c1.48539,-0.23115 3.04952,-0.16319 4.45616,-0.69344c1.53722,-0.57948 6.67915,-4.65428 7.83214,-5.37983c4.60139,-2.89558 10.4818,-5.31334 14.35493,-9.22851c0.84524,-0.85441 1.14472,-2.15564 2,-3c0.97165,-0.95925 2.25401,-1.54157 3.38102,-2.31236l2.26872,-1.15594c0,0 2.23607,-1.11803 3.3541,1.11803z" fill="#ff0000"/><path d="M23.59838,154.24579c-3.5708,1.91249 -6.91116,1.70404 -10.69792,2.22193c-3.42622,0.46858 -6.57876,2.56071 -10.095,3.01355c-3.71238,0.4781 -5.83811,-0.64964 -8.53769,2.2865c0,0 -1.76777,1.76777 -3.53553,0c-1.76777,-1.76777 0,-3.53553 0,-3.53553c0.84534,-0.80258 1.49245,-1.88842 2.53602,-2.40773c1.77486,-0.88323 3.79163,-1.01265 5.81535,-1.10166l-1.13921,-0.2848c-1.1133,-0.25265 -1.9444,-1.24829 -1.9444,-2.43804c0,-0.88153 0.45626,-1.6565 1.14551,-2.10163l2.96774,-1.97849l0.02382,0.03573l0.10811,-0.11788c0.64857,-0.32404 1.28825,-0.62988 1.92351,-0.92096c-0.44084,-1.17218 0.39314,-3.05343 2.81383,-5.90353c0.85794,-1.01014 2.47779,-0.94208 3.72691,-1.38494c0.11592,-0.0411 6.033,-2.00909 6.0916,-2.02859c4.44444,-1.00251 5.74607,-3.5652 10.32421,-4.02115l0.95957,-0.63972c0.40239,-0.27681 0.88987,-0.43883 1.41519,-0.43883c0.82236,0 1.55197,0.39706 2.0076,1.00992c0.82016,0.1141 1.54799,0.39515 2.01775,1.02448c1.04431,1.39906 -0.35283,3.47568 -0.62731,5.19981c-0.10036,0.63038 -0.20107,1.26287 -0.30817,1.89324c0.25928,0.39398 0.41014,0.86565 0.41014,1.37255c0,0.86558 -0.4399,1.62842 -1.10833,2.07715c-0.93983,3.77462 -2.55627,7.16712 -6.2933,9.16864zM24.23274,146.57291c-1.806,0.96289 -3.72198,1.73899 -5.56308,2.63659c-0.88762,0.43275 -1.77088,1.1543 -2.65662,1.89507c1.74713,-0.18557 3.40096,-0.46252 5.38858,-1.35035c1.58898,-0.70977 2.34302,-1.82817 2.83112,-3.1813z" fill="#fe5253"/></g></g></svg>