<svg version="1.1" xmlns="http://www.w3.org/2000/svg" xmlns:xlink="http://www.w3.org/1999/xlink" width="168.36845" height="54.672" viewBox="0,0,168.36845,54.672"><defs><linearGradient x1="297.27798" y1="176.1553" x2="452.64337" y2="176.1553" gradientUnits="userSpaceOnUse" id="color-1"><stop offset="0" stop-color="#d1d2d3"/><stop offset="1" stop-color="#a4a5a8"/></linearGradient></defs><g transform="translate(-289.51958,-149.449)"><g data-paper-data="{&quot;isPaintingLayer&quot;:true}" fill-rule="nonzero" stroke="none" stroke-width="1" stroke-linecap="butt" stroke-linejoin="miter" stroke-miterlimit="10" stroke-dasharray="" stroke-dashoffset="0" style="mix-blend-mode: normal"><path d="M457.88803,195.516c0,4.752 -7.13061,8.605 -15.92082,8.605h-136.52866c-8.79207,0 -15.91897,-3.854 -15.91897,-8.605v-37.463c0,-4.752 7.12691,-8.604 15.91897,-8.604h136.52682c8.79576,0 15.92082,3.852 15.92082,8.604v37.463z" fill="#434345"/><path d="M452.6417,157.424v37.462c0,2.862 -4.29514,5.19 -9.58149,5.19h-136.20259c-5.2808,0 -9.57965,-2.328 -9.57965,-5.19v-37.463c0,-2.862 4.29883,-5.19 9.57965,-5.19h136.20259c5.28634,0 9.58149,2.329 9.58149,5.191z" fill="url(#color-1)"/><text transform="translate(310.62107,182.47399) scale(0.5,0.5)" font-size="40" xml:space="preserve" fill="#434345" fill-rule="nonzero" stroke="none" stroke-width="1" stroke-linecap="butt" stroke-linejoin="miter" stroke-miterlimit="10" stroke-dasharray="" stroke-dashoffset="0" font-family="Pixel" font-weight="normal" text-anchor="start" style="mix-blend-mode: normal"><tspan x="0" dy="0">Change Song</tspan></text></g></g></svg>