<svg version="1.1" xmlns="http://www.w3.org/2000/svg" xmlns:xlink="http://www.w3.org/1999/xlink" width="53.25833" height="53.25833" viewBox="0,0,53.25833,53.25833"><defs><linearGradient x1="197.375" y1="163.26168" x2="250.63333" y2="163.26168" gradientUnits="userSpaceOnUse" id="color-1"><stop offset="0" stop-color="#8dc63f"/><stop offset="1" stop-color="#006838"/></linearGradient><radialGradient cx="224.00417" cy="163.26168" r="21.78035" gradientUnits="userSpaceOnUse" id="color-2"><stop offset="0" stop-color="#d7df23"/><stop offset="1" stop-color="#009444"/></radialGradient></defs><g transform="translate(-197.375,-136.632)"><g data-paper-data="{&quot;isPaintingLayer&quot;:true}" fill-rule="nonzero" stroke="none" stroke-width="1" stroke-linecap="butt" stroke-linejoin="miter" stroke-miterlimit="10" stroke-dasharray="" stroke-dashoffset="0" style="mix-blend-mode: normal"><path d="M250.63333,163.26117c0,14.68262 -11.94527,26.62917 -26.62917,26.62917c-14.68326,0 -26.62917,-11.94655 -26.62917,-26.62917c0,-14.68326 11.94527,-26.62917 26.62917,-26.62917c14.6839,0 26.62917,11.94655 26.62917,26.62917z" fill="url(#color-1)"/><path d="M202.22343,163.26181c0,-12.02916 9.75157,-21.78073 21.78073,-21.78073c12.02916,0 21.78073,9.75157 21.78073,21.78073c0,12.02916 -9.75157,21.78073 -21.78073,21.78073c-12.02916,0 -21.78073,-9.75157 -21.78073,-21.78073z" fill="url(#color-2)"/><text transform="translate(204.59508,170.65342) scale(0.53682,0.53682)" font-size="40" xml:space="preserve" fill="#000000" fill-rule="nonzero" stroke="none" stroke-width="1" stroke-linecap="butt" stroke-linejoin="miter" stroke-miterlimit="10" stroke-dasharray="" stroke-dashoffset="0" font-family="Pixel" font-weight="normal" text-anchor="start" style="mix-blend-mode: normal"><tspan x="0" dy="0">&lt;--</tspan></text></g></g></svg>