<svg version="1.1" xmlns="http://www.w3.org/2000/svg" xmlns:xlink="http://www.w3.org/1999/xlink" width="246.5884" height="54.672" viewBox="0,0,246.5884,54.672"><defs><linearGradient x1="106.0992" y1="176.156" x2="352.6876" y2="176.156" gradientUnits="userSpaceOnUse" id="color-1"><stop offset="0" stop-color="#424344"/><stop offset="1" stop-color="#414042"/></linearGradient><linearGradient x1="115.35023" y1="176.1553" x2="343.4363" y2="176.1553" gradientUnits="userSpaceOnUse" id="color-2"><stop offset="0" stop-color="#d1d2d3"/><stop offset="1" stop-color="#a4a5a8"/></linearGradient></defs><g transform="translate(-106.0992,-148.82)"><g data-paper-data="{&quot;isPaintingLayer&quot;:true}" fill-rule="nonzero" stroke="none" stroke-width="1" stroke-linecap="butt" stroke-linejoin="miter" stroke-miterlimit="10" stroke-dasharray="" stroke-dashoffset="0" style="mix-blend-mode: normal"><path d="M352.6876,194.887c0,4.752 -10.44331,8.605 -23.31725,8.605h-199.95661c-12.87665,0 -23.31454,-3.854 -23.31454,-8.605v-37.463c0,-4.752 10.43789,-8.604 23.31454,-8.604h199.9539c12.88207,0 23.31725,3.852 23.31725,8.604v37.463z" fill="url(#color-1)"/><path d="M343.43386,157.424v37.462c0,2.862 -6.30555,5.19 -14.06622,5.19h-199.9539c-7.75255,0 -14.06351,-2.328 -14.06351,-5.19v-37.463c0,-2.862 6.31097,-5.19 14.06351,-5.19h199.9539c7.76067,0 14.06622,2.329 14.06622,5.191z" fill="url(#color-2)"/></g></g></svg>