<svg version="1.1" xmlns="http://www.w3.org/2000/svg" xmlns:xlink="http://www.w3.org/1999/xlink" width="157.48763" height="157.6002" viewBox="0,0,157.48763,157.6002"><g transform="translate(-161.25619,-101.1999)"><g data-paper-data="{&quot;isPaintingLayer&quot;:true}" fill-rule="evenodd" stroke="none" stroke-width="1" stroke-linecap="butt" stroke-linejoin="miter" stroke-miterlimit="10" stroke-dasharray="" stroke-dashoffset="0" style="mix-blend-mode: normal"><path d="M308.91179,218.07747c-3.44606,8.32655 -9.07305,15.57013 -16.28872,20.96835c-1.2599,0.96742 -2.5648,1.91235 -3.89219,2.81228c-17.01552,13.45666 -38.8379,19.27868 -60.29525,16.08623c-21.68829,-1.86735 -41.77921,-12.21654 -53.18581,-33.18489c-19.30224,-27.89121 -18.57521,-65.00861 1.80443,-92.12256c20.37964,-27.11395 55.83181,-38.13092 87.98959,-27.34327c32.15778,10.78765 53.79409,40.95551 53.69967,74.87435c-0.01871,13.2646 -3.40141,26.30775 -9.83173,37.90951z" fill="#e6781e"/><g fill="#824600"><path d="M241.8583,258.71143h-1.95845h-0.26706c-0.42285,-53.62286 -0.02226,-111.14189 0.31157,-157.42286h2.22551c-0.33383,46.28097 -0.73442,103.75495 -0.31157,157.42286z"/><path d="M317.77029,177.11729c0,0.78824 0,1.599 0,2.40976h-155.54059c0,-0.81076 0,-1.599 0,-2.38724z"/><path d="M290.10726,240.24408c-0.6454,0.47294 -1.26854,0.96841 -1.93619,1.41883c-22.83369,-23.26435 -27.32921,-63.59973 -19.38415,-93.66547c2.91721,-11.82474 8.80489,-22.68581 17.09188,-31.52961c0.62314,0.45042 1.24628,0.94589 1.84717,1.41883c-8.16196,8.60083 -13.9551,19.21527 -16.80257,30.78642c-10.08154,38.2184 1.51334,73.464 19.18386,91.57101z"/><path d="M189.80372,242.15838c-0.62314,-0.51048 -1.22403,-1.05099 -1.80266,-1.62152c18.33817,-16.75574 31.13482,-50.42486 22.78918,-89.74679c-2.6202,-12.72286 -8.35133,-24.5777 -16.66904,-34.47988l1.86942,-1.35127c8.44721,10.16504 14.27363,22.28993 16.95835,35.29065c3.72252,18.11503 3.18123,36.86222 -1.58011,54.7264c-4.25072,15.60716 -11.6394,28.26405 -21.56515,37.18242z"/></g></g></g></svg>