<svg version="1.1" xmlns="http://www.w3.org/2000/svg" xmlns:xlink="http://www.w3.org/1999/xlink" width="204.72317" height="54.672" viewBox="0,0,204.72317,54.672"><defs><linearGradient x1="296.63454" y1="175.83358" x2="487.38985" y2="175.83358" gradientUnits="userSpaceOnUse" id="color-1"><stop offset="0" stop-color="#d1d2d3"/><stop offset="1" stop-color="#a4a5a8"/></linearGradient></defs><g transform="translate(-289.51958,-149.449)"><g data-paper-data="{&quot;isPaintingLayer&quot;:true}" fill-rule="nonzero" stroke="none" stroke-width="1" stroke-linecap="butt" stroke-linejoin="miter" stroke-miterlimit="10" stroke-dasharray="" stroke-dashoffset="0" style="mix-blend-mode: normal"><path d="M494.24275,195.516c0,4.752 -8.67028,8.605 -19.3585,8.605h-166.00842c-10.69049,0 -19.35625,-3.854 -19.35625,-8.605v-37.463c0,-4.752 8.66578,-8.604 19.35625,-8.604h166.00618c10.69497,0 19.3585,3.852 19.3585,8.604v37.463z" fill="#434345"/><path d="M487.3878,157.10228v37.462c0,2.862 -5.27351,5.19 -11.76401,5.19h-167.22751c-6.48369,0 -11.76175,-2.328 -11.76175,-5.19v-37.463c0,-2.862 5.27804,-5.19 11.76175,-5.19h167.22751c6.49049,0 11.76401,2.329 11.76401,5.191z" fill="url(#color-1)"/><text transform="translate(304.50833,182.79572) scale(0.5,0.5)" font-size="40" xml:space="preserve" fill="#434345" fill-rule="nonzero" stroke="none" stroke-width="1" stroke-linecap="butt" stroke-linejoin="miter" stroke-miterlimit="10" stroke-dasharray="" stroke-dashoffset="0" font-family="Pixel" font-weight="normal" text-anchor="start" style="mix-blend-mode: normal"><tspan x="0" dy="0">Change Backdrop</tspan></text></g></g></svg>